<svg id="Layer_1" data-name="Layer 1" xmlns="http://www.w3.org/2000/svg" xmlns:xlink="http://www.w3.org/1999/xlink" width="88" height="88" viewBox="0 0 88 88"><defs><style>.cls-1{fill:none;}.cls-2{clip-path:url(#clip-path);}.cls-3{fill:#fff;}.cls-4{fill:url(#Gradiente_sem_nome_82);}</style><clipPath id="clip-path"><rect class="cls-1" width="88" height="88"/></clipPath><linearGradient id="Gradiente_sem_nome_82" x1="7.98" y1="44" x2="80.02" y2="44" gradientUnits="userSpaceOnUse"><stop offset="0" stop-color="#e84942"/><stop offset="1" stop-color="#e31d30"/></linearGradient></defs><g class="cls-2"><g class="cls-2"><g class="cls-2"><path class="cls-3" d="M70,0H18A18,18,0,0,0,0,18V70A18,18,0,0,0,18,88H70A18,18,0,0,0,88,70V18A18,18,0,0,0,70,0Z"/></g></g></g><polygon class="cls-4" points="51.09 15.08 25.82 15.08 54.75 44.01 31.08 67.67 20.68 67.67 44.35 44.02 15.42 15.08 7.98 15.08 36.92 44.01 7.99 72.92 33.26 72.92 62.19 44.02 38.51 20.33 48.91 20.33 72.59 44.01 43.66 72.92 51.09 72.92 80.02 44.02 51.09 15.08"/></svg>