<svg width="88" height="88" viewBox="0 0 88 88" fill="none" xmlns="http://www.w3.org/2000/svg"><g clip-path="url(#clip0)"><g clip-path="url(#clip1)"><g clip-path="url(#clip2)"><path d="M70 3.8147e-06H18C8.05887 3.8147e-06 0 8.05888 0 18V70C0 79.9411 8.05887 88 18 88H70C79.9411 88 88 79.9411 88 70V18C88 8.05888 79.9411 3.8147e-06 70 3.8147e-06Z" fill="#fff"/></g></g><circle cx="44" cy="44" r="44" fill="#fff"/><path fill-rule="evenodd" clip-rule="evenodd" d="M39.1612 78H58.6128L24.4515 44.0488L43.9999 24.5366H24.5483L4.99989 43.9512L39.1612 78Z" fill="#E20613"/><path fill-rule="evenodd" clip-rule="evenodd" d="M48.8387 10H29.2903L63.4516 43.9512L44 63.4634H63.4516L83 43.9512L48.8387 10Z" fill="#E20613"/></g><defs><clipPath id="clip0"><path fill="#fff" d="M0 0H88V88H0z"/></clipPath><clipPath id="clip1"><path fill="#fff" d="M0 0H88V88H0z"/></clipPath><clipPath id="clip2"><path fill="#fff" d="M0 0H88V88H0z"/></clipPath></defs><script xmlns=""/></svg>