<svg width="88" height="88" viewBox="0 0 88 88" fill="none" xmlns="http://www.w3.org/2000/svg"><g clip-path="url(#clip0)"><circle cx="44" cy="44" r="44" fill="#fff"/><path fill-rule="evenodd" clip-rule="evenodd" d="M5 44V43.4H5.1C5.4 29.9 16.4 19 30.1 19C35.2 19 40 20.5 44 23.2C37.3 27.6 32.9 35.3 32.9 44C32.9 57.8 44.1 69 57.9 69C71.7 69 82.9 57.8 82.9 44C82.9 43.8 82.9 43.6 82.9 43.4H83V44C83 65.5 65.5 83 44 83C22.5 83 5 65.5 5 44Z" fill="#C90C0F"/><path fill-rule="evenodd" clip-rule="evenodd" d="M44.0001 64.8C50.7001 60.3 55.1001 52.7 55.1001 44C55.1001 35.3 50.7001 27.7 43.9001 23.2C40.0001 20.5 35.3001 19 30.2001 19H30.1001C16.5001 19 5.4001 29.9 5.1001 43.5C5.3001 22.2 22.7001 5 44.0001 5C65.3001 5 82.7001 22.2 83.0001 43.4H82.9001V44C82.9001 57.8 71.7001 69 57.9001 69C52.7001 69 48.0001 67.5 44.0001 64.8Z" fill="#153D8A"/></g><defs><clipPath id="clip0"><path fill="#fff" d="M0 0H88V88H0z"/></clipPath></defs><script xmlns=""/></svg>