<svg width="88" height="88" viewBox="0 0 88 88" fill="none" xmlns="http://www.w3.org/2000/svg"><g clip-path="url(#clip0)"><g clip-path="url(#clip1)"><g clip-path="url(#clip2)"><path d="M70 3.8147e-06H18C8.05887 3.8147e-06 0 8.05888 0 18V70C0 79.9411 8.05887 88 18 88H70C79.9411 88 88 79.9411 88 70V18C88 8.05888 79.9411 3.8147e-06 70 3.8147e-06Z" fill="#00539E"/></g></g><circle cx="44" cy="44" r="44" fill="#00539E"/><path fill-rule="evenodd" clip-rule="evenodd" d="M49.0625 64.7215V24.2785L67.625 44.5L74 37.5696L44 7L14 37.5696L20.375 44.5L38.9375 24.2785V64.8165L20.375 44.5L14 51.4304L44 82L74 51.4304L67.625 44.5L49.0625 64.7215Z" fill="#fff"/></g><defs><clipPath id="clip0"><path fill="#fff" d="M0 0H88V88H0z"/></clipPath><clipPath id="clip1"><path fill="#fff" d="M0 0H88V88H0z"/></clipPath><clipPath id="clip2"><path fill="#fff" d="M0 0H88V88H0z"/></clipPath></defs><script xmlns=""/></svg>