<svg enable-background="new 0 0 88 88" height="88" viewBox="0 0 88 88" width="88" xmlns="http://www.w3.org/2000/svg" xmlns:xlink="http://www.w3.org/1999/xlink"><clipPath id="a"><path d="m0 0h88v88h-88z"/></clipPath><clipPath id="b"><path d="m0 0h88v88h-88z"/></clipPath><g clip-path="url(#a)"><g clip-path="url(#b)"><path d="m70 0h-52c-9.9 0-18 8.1-18 18v52c0 9.9 8.1 18 18 18h52c9.9 0 18-8.1 18-18v-52c0-9.9-8.1-18-18-18z" fill="#5e22f3"/></g></g><g fill="#fff"><path d="m72.8 46.3c-6 6.1-2.6 12.8-7.6 17.9-2.1 2.2-5.2 3.8-8.6 3.8v-25.5c3 0 6-.9 8.8-3.8 6-6.1 2.6-12.8 7.6-17.9 2.1-2.2 5.3-3.8 8.7-3.8v25.5c-3 0-6 .8-8.9 3.8z"/><path d="m47.7 46.3c-6 6.1-2.6 12.8-7.6 17.9-2.1 2.2-5.2 3.8-8.7 3.8v-25.5c3 0 6-.9 8.8-3.8 6-6.1 2.6-12.8 7.6-17.9 2.1-2.2 5.3-3.8 8.7-3.8v25.5c-2.9 0-5.9.8-8.8 3.8z"/><path d="m22.6 46.3c-6 6.1-2.6 12.8-7.6 17.9-2.1 2.2-5.3 3.8-8.7 3.8v-25.5c3 0 6-.9 8.8-3.8 6-6.1 2.6-12.8 7.6-17.9 2.1-2.2 5.3-3.8 8.7-3.8v25.5c-2.9 0-5.9.8-8.8 3.8z"/></g></svg>