<svg width="88" height="88" viewBox="0 0 88 88" fill="none" xmlns="http://www.w3.org/2000/svg"><g clip-path="url(#clip0_71_75)"><path d="M70 0H18C8.05887 0 0 8.05887 0 18V70C0 79.9411 8.05887 88 18 88H70C79.9411 88 88 79.9411 88 70V18C88 8.05887 79.9411 0 70 0Z" fill="#fff"/><circle cx="44" cy="44" r="44" fill="#fff"/><path fill-rule="evenodd" clip-rule="evenodd" d="M44.4603 80.3425L53.4943 37.7948C53.8629 36.0588 54.0472 34.3961 54.0472 32.6235C54.0472 18.885 42.9126 7.6562 29.123 7.6562H10.0956L8.54787 14.9699H29.1217C38.893 14.9699 46.8198 22.8732 46.8198 32.6235C46.8198 33.8418 46.6355 35.098 46.4145 36.2797L37.2328 80.3425H44.4603ZM82.9191 16.5203L81.3335 23.7974H56.4446L58.0302 16.5203H82.9191ZM73.8485 32.6235C77.1662 32.6235 79.9688 30.3346 80.6695 27.0471L81.0381 25.3477H56.1492L54.6002 32.6235H73.8485ZM83.2498 14.7111V14.9699H58.3609L59.91 7.65751H76.2433C80.1165 7.65751 83.2498 10.8327 83.2498 14.7111ZM26.8002 80.3425H19.5361L29.676 32.6235H4.75049L6.33611 25.3477H29.123C33.1413 25.3477 36.3871 28.6353 36.3871 32.6235C36.3871 33.1046 36.3505 33.6575 36.2394 34.1372L26.8002 80.3425ZM29.123 16.5203C38.0093 16.5203 45.1989 23.7229 45.1989 32.6235C45.1989 33.732 45.1257 34.8405 44.8668 35.9477L35.6119 80.3425H28.3479L37.7871 34.4706C37.8969 33.8418 37.9714 33.251 37.9714 32.6235C37.9714 27.7477 34.0263 23.7974 29.123 23.7974H6.66683L8.21585 16.5203H29.123Z" fill="#E2071B"/></g><defs><clipPath id="clip0_71_75"><path fill="#fff" d="M0 0H88V88H0z"/></clipPath></defs><script xmlns=""/></svg>