<svg height="88" viewBox="0 0 423.43 423.43" width="88" xmlns="http://www.w3.org/2000/svg" xmlns:xlink="http://www.w3.org/1999/xlink"><clipPath id="a"><path d="m0 0h423.43v423.43h-423.43z"/></clipPath><g clip-path="url(#a)"><g clip-path="url(#a)"><path d="m336.82 0h-250.21a86.61 86.61 0 0 0 -86.61 86.61v250.21a86.61 86.61 0 0 0 86.61 86.61h250.21a86.61 86.61 0 0 0 86.61-86.61v-250.21a86.61 86.61 0 0 0 -86.61-86.61z" fill="#3b298a"/></g></g><path d="m140.25 183.4c10.7-1.33 21.39-2.73 32.11-4 11.82-1.38 23.64-2.72 35.48-3.87 5.89-.57 11.82-.88 17.73-.94 13.18-.14 26.36-.39 39.52 0 17.51.58 35 1.63 52.24 5.2 12.42 2.57 23.36 8.25 33.57 15.51 10.5 7.47 19 17.12 28 26.13 5.33 5.31 10.26 11 15.34 16.59a22.34 22.34 0 0 1 1.63 2.47 33.46 33.46 0 0 1 -4.71.52c-8.57-.39-17.15-.73-25.7-1.37a132.34 132.34 0 0 1 -17.79-2.16c-9.66-2.08-18.36-6.23-24.63-14.27a17.79 17.79 0 0 1 -2.49-4.16c-5-12.19-13.83-20.63-25.39-26.72-11.2-5.91-23.18-8.69-35.6-10.18a407.11 407.11 0 0 0 -53.84-2.5c-12.86.16-25.7 1.27-38.54 2-9 .54-18 1.22-26.94 1.83z" fill="#ff7a00"/><path d="m36.65 205.8c15.67-2.18 31.31-4.56 47-6.48 22.1-2.69 44.23-5.12 66.37-7.51a559.07 559.07 0 0 1 60.25-3.52c19.64 0 39.26.87 58.32 6.19a182.48 182.48 0 0 1 18 6.35c10.21 4 17.49 11.37 22.78 20.82 1 1.74 2 3.43 3 5.19 4.35 8.36 11.47 13.29 20.19 16.27a91.28 91.28 0 0 0 26.36 4.55 4.11 4.11 0 0 1 2.19.47c-1.78.17-3.56.37-5.34.49-10.3.73-20.53.62-30.64-2-9.27-2.41-16-7.92-21-15.88-1.45-2.32-2.92-4.62-4.37-6.94a34.07 34.07 0 0 0 -17.31-13.93 187.17 187.17 0 0 0 -45-10.76c-26-3-52.18-2.69-78.29-1.5-21.8 1-43.57 2.69-65.34 4.23-17.56 1.25-35.11 2.74-52.66 4.13-1.47.12-2.93.27-4.39.41z" fill="#e0201e"/></svg>
