<svg width="88" height="88" viewBox="0 0 88 88" fill="none" xmlns="http://www.w3.org/2000/svg"><g clip-path="url(#clip0_71_100)"><g clip-path="url(#clip1_71_100)"><g clip-path="url(#clip2_71_100)"><circle cx="44" cy="44" r="44" fill="#fff"/></g></g><g clip-path="url(#clip3_71_100)"><g clip-path="url(#clip4_71_100)" fill="#54565A"><path d="M43.9982 7.87306e-06C19.6904 -0.0143736 0 19.6756 0 43.9766C0 68.2849 19.7119 87.982 44.027 88C68.3258 88.0036 88.0215 68.3046 88 44.0198C88 19.7098 68.3114 0.00540091 43.9982 7.87306e-06ZM68.0346 54.4859L57.5433 61.8959C57.2881 62.0811 56.508 62.6096 56.4307 62.6599C53.0175 64.8171 48.9895 66.0899 44.6506 66.0899C32.4608 66.0899 22.5788 56.2098 22.5788 44.0198C22.5788 31.8279 32.4626 21.9461 44.6506 21.9461C48.9608 21.9461 52.9582 23.1937 56.3624 25.3365C56.4595 25.3904 57.2413 25.9064 57.4696 26.0753L68.0364 33.5303L79.4588 41.5606C80.4204 42.2437 80.9039 43.1281 80.9273 44.0198C80.9039 44.8934 80.4204 45.7815 79.4588 46.4592L68.0346 54.4859Z"/><path fill-rule="evenodd" clip-rule="evenodd" d="M55.6578 56.6647C54.3115 57.6192 53.2295 56.8408 53.2295 54.9587V43.9784V33.018C53.2295 31.125 54.3097 30.3538 55.6578 31.2958L63.4189 36.7823L71.1997 42.2688C72.5442 43.209 72.5442 44.7604 71.1997 45.7168L63.4189 51.1799L55.6578 56.6647Z"/></g></g></g><defs><clipPath id="clip0_71_100"><path fill="#fff" d="M0 0H88V88H0z"/></clipPath><clipPath id="clip1_71_100"><path fill="#fff" d="M0 0H88V88H0z"/></clipPath><clipPath id="clip2_71_100"><path fill="#fff" d="M0 0H88V88H0z"/></clipPath><clipPath id="clip3_71_100"><path fill="#fff" d="M0 0H88V88H0z"/></clipPath><clipPath id="clip4_71_100"><path fill="#fff" d="M0 0H88V88H0z"/></clipPath></defs><script xmlns=""/></svg>