<?xml version="1.0" encoding="utf-8"?>
<!-- Generator: Adobe Illustrator 26.0.3, SVG Export Plug-In . SVG Version: 6.00 Build 0)  -->
<svg width="32" height="32" version="1.1" id="Layer_1" xmlns="http://www.w3.org/2000/svg"
	xmlns:xlink="http://www.w3.org/1999/xlink" x="0px" y="0px"
	viewBox="0 0 32 32" style="enable-background:new 0 0 32 32;" xml:space="preserve">
<style type="text/css">
	.st0{fill:#1565C0;stroke:#FFFFFF;stroke-width:1.0909;stroke-miterlimit:1.4545;}
	.st1{fill:#FFFFFF;}
</style>
<path class="st0" d="M6.4,0.5h19.3c3.2,0,5.8,2.6,5.8,5.8v19.3c0,3.2-2.6,5.8-5.8,5.8H6.4c-3.2,0-5.8-2.6-5.8-5.8V6.4
	C0.5,3.2,3.2,0.5,6.4,0.5z"/>
<path class="st1" d="M9,26.2c-1.4,0-2.6-0.5-3.5-1.5S4,22.6,4,21.2s0.5-2.6,1.5-3.5s2.2-1.5,3.5-1.5s2.6,0.5,3.5,1.5
	s1.5,2.2,1.5,3.5s-0.5,2.6-1.5,3.5S10.4,26.2,9,26.2z M9,24.2c0.8,0,1.5-0.3,2.1-0.9s0.9-1.3,0.9-2.1s-0.3-1.5-0.9-2.1
	S9.8,18.2,9,18.2s-1.5,0.3-2.1,0.9S6,20.4,6,21.2s0.3,1.5,0.9,2.1S8.2,24.2,9,24.2z M15,23.2v-5l-3.2-2.8c-0.2-0.2-0.4-0.4-0.4-0.6
	c-0.1-0.2-0.2-0.5-0.2-0.8s0.1-0.5,0.2-0.8c0.1-0.2,0.3-0.5,0.4-0.6l2.8-2.8c0.2-0.2,0.4-0.4,0.7-0.5c0.3-0.1,0.5-0.1,0.8-0.1
	c0.3,0,0.6,0.1,0.8,0.1c0.3,0.1,0.5,0.2,0.7,0.5l1.9,1.9c0.5,0.5,1,0.8,1.6,1.1c0.6,0.3,1.2,0.4,1.9,0.4v2c-1,0-1.9-0.2-2.7-0.6
	c-0.9-0.4-1.6-0.9-2.3-1.6l-0.8-0.8l-2.4,2.4L17,17v6.2H15z M19.5,9.8c-0.5,0-1-0.2-1.4-0.6c-0.4-0.4-0.6-0.9-0.6-1.4s0.2-1,0.6-1.4
	c0.4-0.4,0.9-0.6,1.4-0.6s1,0.2,1.4,0.6c0.4,0.4,0.6,0.9,0.6,1.4s-0.2,1-0.6,1.4C20.5,9.6,20,9.8,19.5,9.8z M23,26.2
	c-1.4,0-2.6-0.5-3.5-1.5S18,22.6,18,21.2s0.5-2.6,1.5-3.5s2.2-1.5,3.5-1.5s2.6,0.5,3.5,1.5s1.5,2.2,1.5,3.5s-0.5,2.6-1.5,3.5
	S24.4,26.2,23,26.2z M23,24.2c0.8,0,1.5-0.3,2.1-0.9s0.9-1.3,0.9-2.1s-0.3-1.5-0.9-2.1s-1.3-0.9-2.1-0.9s-1.5,0.3-2.1,0.9
	S20,20.4,20,21.2s0.3,1.5,0.9,2.1S22.2,24.2,23,24.2z"/>
</svg>