<svg version="1.1" id="Layer_1" xmlns="http://www.w3.org/2000/svg"
	xmlns:xlink="http://www.w3.org/1999/xlink" x="0px" y="0px"
	viewBox="0 0 64 64" style="enable-background:new 0 0 64 64;" xml:space="preserve"
	width="64px" height="64px">
<style type="text/css">
	.st0{fill:#1F1F1F;}
	.st1{fill:#FFFFFF;}
</style>
<g>
	<polygon class="st0" points="4.8,55.3 32,28.1 59.2,55.3 52.6,61.9 32,41.3 11.4,61.9 	"/>
	<path class="st1" d="M32,30.2l25.1,25.1l-4.4,4.4L32,39.1L11.4,59.8L7,55.4L32,30.2 M32,26l-2.1,2.1L4.8,53.2l-2.1,2.1l2.1,2.1
		l4.4,4.4l2.1,2.1l2.1-2.1L32,43.4l18.5,18.5l2.1,2.1l2.1-2.1l4.4-4.4l2.1-2.1l-2.1-2.1l-25-25.2L32,26L32,26z"/>
</g>
</svg>