<svg width="32" height="32" enable-background="new 0 0 32 32" viewBox="0 0 32 32" xmlns="http://www.w3.org/2000/svg"><circle cx="16" cy="16" fill="#4caf50" opacity=".3" r="15"/><circle cx="16" cy="16" fill="#c5fcc5" r="13" stroke="#fff" stroke-width="2"/><path d="m10.4 24.9c-.3 0-.5-.1-.7-.3s-.3-.4-.3-.6v-2c-.3-.3-.5-.7-.7-1s-.3-.8-.3-1.3v-8.9c0-1.3.6-2.2 1.8-2.8s3.1-.9 5.7-.9c2.7 0 4.6.3 5.8.9s1.7 1.5 1.7 2.9v8.9c0 .5-.1.9-.3 1.3s-.4.7-.7 1v1.9c0 .3-.1.5-.3.7s-.4.3-.7.3h-.9c-.3 0-.5-.1-.7-.3s-.3-.4-.3-.7v-1h-7.5v1c0 .3-.1.5-.3.7s-.4.3-.7.3h-.6zm0-10.3h11.2v-2.8h-11.2zm2.3 5.6c.4 0 .7-.1 1-.4s.4-.6.4-1-.1-.7-.4-1-.6-.4-1-.4-.7.1-1 .4-.4.6-.4 1 .1.7.4 1 .6.4 1 .4zm6.6 0c.4 0 .7-.1 1-.4s.4-.6.4-1-.1-.7-.4-1-.6-.4-1-.4-.7.1-1 .4-.4.6-.4 1 .1.7.4 1 .6.4 1 .4z" fill="#1f1f1f"/></svg>