<svg width="32" height="32" enable-background="new 0 0 88 88" viewBox="0 0 88 88" xmlns="http://www.w3.org/2000/svg"><path d="m18 86.5c-9.1 0-16.5-7.4-16.5-16.5v-52c0-9.1 7.4-16.5 16.5-16.5h52c9.1 0 16.5 7.4 16.5 16.5v52c0 9.1-7.4 16.5-16.5 16.5z" fill="#4a6276"/><g fill="#fff"><path d="m70 3c8.3 0 15 6.7 15 15v52c0 8.3-6.7 15-15 15h-52c-8.3 0-15-6.7-15-15v-52c0-8.3 6.7-15 15-15zm0-3h-52c-9.9 0-18 8.1-18 18v52c0 9.9 8.1 18 18 18h52c9.9 0 18-8.1 18-18v-52c0-9.9-8.1-18-18-18z"/><path d="m23.8 75.9c-1 0-1.8-.3-2.4-1-.6-.6-1-1.4-1-2.4v-6.9c-1-1.1-1.8-2.4-2.4-3.7-.6-1.4-.9-2.9-.9-4.5v-31.9c0-4.6 2.2-8.1 6.5-10.2s11.1-3.2 20.4-3.2c9.6 0 16.5 1 20.7 3.1s6.2 5.5 6.2 10.3v31.9c0 1.6-.3 3.1-.9 4.5s-1.4 2.6-2.4 3.7v6.9c0 1-.3 1.8-1 2.4s-1.4 1-2.4 1h-3.4c-1 0-1.8-.3-2.4-1-.6-.6-1-1.4-1-2.4v-3.4h-26.8v3.4c0 1-.3 1.8-1 2.4-.6.6-1.4 1-2.4 1zm0-36.9h40.3v-10.1h-40.3zm8.4 20.1c1.4 0 2.6-.5 3.6-1.5s1.5-2.2 1.5-3.6-.5-2.6-1.5-3.6-2.2-1.5-3.6-1.5-2.6.5-3.6 1.5-1.5 2.2-1.5 3.6.5 2.6 1.5 3.6 2.2 1.5 3.6 1.5zm23.6 0c1.4 0 2.6-.5 3.6-1.5s1.5-2.2 1.5-3.6-.5-2.6-1.5-3.6-2.2-1.5-3.6-1.5-2.6.5-3.6 1.5-1.5 2.2-1.5 3.6.5 2.6 1.5 3.6 2.2 1.5 3.6 1.5z"/></g></svg>