<svg width="32" height="32" enable-background="new 0 0 32 32" viewBox="0 0 32 32"
	xmlns="http://www.w3.org/2000/svg">
	<!-- Circle that will become the line color -->
	<circle cx="16" cy="16" r="13" fill="#ffffff" stroke="#ffffff" stroke-width="2" />

	<!-- Train icon that stays black -->
	<path fill="#000000"
		d="M16,6.5c-4,0-8,0.5-8,4V20c0,1.9,1.6,3.5,3.5,3.5L10,25v0.5h2.2l2-2H18l2,2h2V25l-1.5-1.5
  c1.9,0,3.5-1.6,3.5-3.5v-9.5C24,7,20.4,6.5,16,6.5z
  M11.5,21.5c-0.8,0-1.5-0.7-1.5-1.5s0.7-1.5,1.5-1.5S13,19.2,13,20
  S12.3,21.5,11.5,21.5z
  M15,14.5h-5v-4h5V14.5z
  M17,14.5v-4h5v4H17z
  M20.5,21.5c-0.8,0-1.5-0.7-1.5-1.5s0.7-1.5,1.5-1.5S22,19.2,22,20
  S21.3,21.5,20.5,21.5z" />
</svg>